<?xml version="1.0" encoding="UTF-8"?>
<svg version="1.1" xmlns="http://www.w3.org/2000/svg" width="512" height="512">
<path d="M0 0 C2.18715369 2.02811962 4.28294208 4.12025302 6.36404419 6.25708008 C7.13100113 7.02636841 7.89795807 7.79565674 8.68815613 8.58825684 C10.29998367 10.20979808 11.90579413 11.83734 13.50588989 13.47045898 C15.96529048 15.97949257 18.44308219 18.46914737 20.92459106 20.95629883 C22.48884681 22.53463183 24.05203625 24.11402249 25.61404419 25.69458008 C26.35766708 26.44356567 27.10128998 27.19255127 27.8674469 27.9642334 C28.88464561 29.00541321 28.88464561 29.00541321 29.9223938 30.06762695 C30.52305161 30.67892456 31.12370941 31.29022217 31.74256897 31.92004395 C33.02420044 33.47583008 33.02420044 33.47583008 33.02420044 35.47583008 C34.31390747 34.7874707 34.31390747 34.7874707 35.62966919 34.08520508 C58.72631413 21.98256313 85.30095359 17.88396758 110.56716919 25.22973633 C115.73968054 27.09417827 120.32943086 29.64765563 125.02420044 32.47583008 C126.35390693 33.14970162 127.68671094 33.81754133 129.02420044 34.47583008 C129.67740013 33.8059758 129.67740013 33.8059758 130.34379578 33.12258911 C134.88742601 28.46815667 139.4487082 23.83156648 144.02053833 19.20483398 C145.72335429 17.47690752 147.42165144 15.74451555 149.11526489 14.00756836 C151.5535616 11.50847517 154.00777562 9.02600804 156.46560669 6.54614258 C157.21693375 5.76900909 157.9682608 4.99187561 158.74235535 4.19119263 C162.97554952 -0.04422127 165.99819404 -2.71625003 172.02420044 -3.52416992 C175.29875854 -2.41205585 177.26219048 -1.45183421 179.46170044 1.22583008 C180.35019449 4.77980627 180.02990243 6.92629365 179.02420044 10.47583008 C173.20690736 18.75505781 164.87169934 25.73879982 157.71170044 32.85083008 C156.41133645 34.14616835 155.11120434 35.44173945 153.81130981 36.73754883 C151.44579189 39.09494361 149.07903605 41.45107792 146.71047974 43.80541992 C145.14641626 45.36024373 143.58365092 46.91637959 142.02420044 48.47583008 C142.56947388 49.04688477 143.11474731 49.61793945 143.67654419 50.20629883 C158.04746126 65.65810539 171.77309325 85.54924149 171.12966919 107.45629883 C171.07746216 108.4559668 171.07746216 108.4559668 171.02420044 109.47583008 C171.76412231 109.71301758 172.50404419 109.95020508 173.26638794 110.19458008 C187.78488311 116.93971664 197.49352111 142.74081969 204.02420044 156.47583008 C205.01677856 155.66500977 206.00935669 154.85418945 207.03201294 154.01879883 C225.69970798 138.79549014 225.69970798 138.79549014 232.23733521 133.95532227 C234.12448669 132.47572576 234.12448669 132.47572576 235.82473755 130.39477539 C240.78402154 125.25147661 245.12277579 123.99052409 252.05679321 123.66880798 C257.3222697 123.5918999 262.5733615 123.70779812 267.83670044 123.85083008 C270.01309873 123.87384017 272.18953636 123.89340241 274.36599731 123.90942383 C276.44611793 123.93625841 278.5262024 123.96610066 280.60623169 123.99926758 C281.57712234 124.01404144 282.548013 124.02881531 283.54832458 124.04403687 C288.9986438 124.19807084 293.12123074 124.67398682 297.83670044 127.60083008 C299.40995289 130.0849129 299.48184007 132.45067217 299.61795044 135.34301758 C298.64163718 138.85003756 296.86953483 140.25055373 294.02420044 142.47583008 C290.89392504 143.08214962 287.86463715 142.88990509 284.69216919 142.72583008 C282.82176583 142.693518 280.95131891 142.66365254 279.08084106 142.63598633 C276.16094808 142.56632007 273.24579698 142.4774063 270.32815552 142.3425293 C259.09643773 141.86834174 250.90004726 142.10133692 242.09841919 149.67504883 C240.27914725 151.34812993 238.50952295 153.05441615 236.76296997 154.80314636 C233.91677864 157.54116184 230.78848982 159.89949184 227.64920044 162.28833008 C222.07221266 166.64059473 216.54281669 171.04977025 211.02420044 175.47583008 C211.31871094 176.67405396 211.31871094 176.67405396 211.61917114 177.89648438 C217.02360804 200.03672966 221.21549129 221.63676815 222.02420044 244.47583008 C223.04296265 244.57025391 224.06172485 244.66467773 225.11135864 244.76196289 C231.72619077 245.59500544 238.16400542 247.3099853 244.62966919 248.89770508 C245.32217585 249.06706825 246.0146825 249.23643143 246.72817421 249.41092682 C250.38574119 250.30603948 254.04181964 251.20696677 257.69680786 252.11254883 C261.45900023 253.04339004 265.22594806 253.95324044 268.99434948 254.85856247 C271.9064448 255.56229111 274.81448955 256.28174894 277.72167397 257.00547028 C279.10882343 257.34786284 280.49744879 257.68433515 281.88753319 258.01461029 C283.8319324 258.47810194 285.77040475 258.96624509 287.70852661 259.45532227 C288.81024704 259.72544128 289.91196747 259.9955603 291.04707336 260.27386475 C296.19298015 262.35143866 299.15073108 266.35790304 302.17459106 270.86376953 C302.73867676 271.69846268 303.30276245 272.53315582 303.88394165 273.3931427 C304.47678955 274.28281235 305.06963745 275.17248199 305.68045044 276.08911133 C306.30520264 277.01749313 306.92995483 277.94587494 307.57363892 278.90238953 C309.56242855 281.86087093 311.54324138 284.82460137 313.52420044 287.78833008 C314.85574551 289.76977667 316.18777194 291.75089988 317.52029419 293.73168945 C318.8032755 295.64220857 320.08584125 297.55300684 321.36795044 299.46411133 C321.96079834 300.34770828 322.55364624 301.23130524 323.16445923 302.14167786 C324.79396206 304.58021552 326.41178456 307.02596907 328.02420044 309.47583008 C328.52008667 310.21940765 329.0159729 310.96298523 329.52688599 311.72909546 C329.98039429 312.4256424 330.43390259 313.12218933 330.90115356 313.83984375 C331.49627747 314.74521126 331.49627747 314.74521126 332.10342407 315.66886902 C333.88625822 319.16755991 333.65815148 321.60872872 333.02420044 325.47583008 C330.96170044 328.47583008 330.96170044 328.47583008 328.02420044 330.47583008 C324.18858039 331.09226901 322.05751422 331.11272772 318.72366333 329.05786133 C314.86078051 325.36302108 312.20882884 321.08511043 309.33279419 316.60083008 C308.70567032 315.63935059 308.07854645 314.67787109 307.43241882 313.68725586 C305.43424484 310.62185394 303.44719302 307.54945824 301.46170044 304.47583008 C299.47144346 301.4030176 297.47876165 298.3318683 295.48027039 295.2644043 C294.23863851 293.35787887 293.00189236 291.44816045 291.77064514 289.53491211 C291.20648392 288.66721191 290.64232269 287.79951172 290.06106567 286.90551758 C289.56984726 286.14480957 289.07862885 285.38410156 288.57252502 284.6003418 C285.20378533 279.97797318 282.66530811 278.01021766 277.06228638 276.64477539 C275.86134338 276.34476624 274.66040039 276.04475708 273.42306519 275.73565674 C272.11830779 275.42478497 270.81347608 275.11422499 269.50857544 274.80395508 C268.16877319 274.47460404 266.82927867 274.14399883 265.49008179 273.81219482 C261.97496587 272.94483668 258.45594235 272.09452366 254.93582153 271.2477417 C251.34036069 270.37963729 247.7488729 269.49541073 244.15701294 268.61254883 C237.11652325 266.88454171 230.07182559 265.17452961 223.02420044 263.47583008 C222.97441544 264.05797775 222.92463043 264.64012543 222.87333679 265.23991394 C222.6391991 267.93759457 222.39618954 270.63441007 222.15310669 273.33129883 C222.03594299 274.70408997 222.03594299 274.70408997 221.91641235 276.10461426 C219.38167558 303.82791602 208.42974739 332.36750965 193.02420044 355.47583008 C195.4795169 356.79418601 197.93845045 358.1051676 200.39920044 359.41333008 C201.20687866 359.84645508 202.01455688 360.27958008 202.84671021 360.72583008 C207.98340304 363.44833755 213.16423337 366.03744474 218.42874146 368.50160217 C221.50866027 369.94520109 224.57687257 371.41292629 227.64535522 372.88064575 C229.18209099 373.60722524 230.72440655 374.32212545 232.27218628 375.02487183 C234.48478119 376.03103195 236.67442461 377.07703435 238.86404419 378.13208008 C239.52690933 378.4206337 240.18977448 378.70918732 240.87272644 379.00648499 C245.88942836 381.49704189 247.36558341 384.53780252 249.15739441 389.74710083 C249.4434404 390.64758148 249.72948639 391.54806213 250.02420044 392.47583008 C250.63276423 394.19480714 251.24312035 395.91315071 251.85525513 397.63085938 C252.4723764 399.43605822 253.0858618 401.2425033 253.69607544 403.05004883 C254.02335632 404.01811966 254.35063721 404.98619049 254.68783569 405.9835968 C255.37180751 408.01241782 256.05405953 410.0418194 256.73464966 412.07177734 C257.77603021 415.16877169 258.8317099 418.26067015 259.88748169 421.3527832 C260.55373644 423.33490609 261.21913114 425.31731831 261.88357544 427.30004883 C262.19913391 428.21686935 262.51469238 429.13368988 262.83981323 430.07829285 C264.46964054 435.00138447 265.59916648 439.22062362 265.02420044 444.47583008 C262.76751367 447.44176125 261.03535968 449.06099552 257.58670044 450.47583008 C253.9582422 450.47583008 252.07687847 449.43073134 249.02420044 447.47583008 C247.64251358 444.99964606 246.73077122 442.99011644 245.85232544 440.34692383 C245.59960876 439.63950546 245.34689209 438.9320871 245.08651733 438.20323181 C243.62349236 433.9126195 242.61554422 429.68845752 241.90292358 425.21614075 C240.10932675 413.97317181 237.75356032 401.93121008 228.48757935 394.41943359 C214.0077308 384.5529886 197.27047463 377.85455369 181.02420044 371.47583008 C180.72562134 372.09280762 180.42704224 372.70978516 180.11941528 373.34545898 C177.80529265 377.84680407 174.23390266 381.59203854 171.02420044 385.47583008 C170.23658325 386.45165039 169.44896606 387.4274707 168.63748169 388.43286133 C162.46149509 395.95504546 155.76807559 402.963443 148.92315674 409.87442017 C147.92101983 410.88639041 146.92117189 411.90063344 145.92382812 412.91732788 C129.03839569 430.08906848 108.57980946 441.33271279 84.00881958 441.71728516 C55.13621712 441.81414522 33.65682988 429.84127871 13.48684692 410.11914062 C9.40294185 406.05517441 5.49112571 401.86798823 1.75466919 397.48364258 C-0.21007453 395.20400766 -2.24928038 393.00171564 -4.28829956 390.78833008 C-9.55607472 384.96653029 -14.26580476 378.74926782 -18.97579956 372.47583008 C-22.84389212 373.72262663 -26.58173238 375.09907608 -30.30685425 376.72241211 C-31.82807892 377.38287033 -31.82807892 377.38287033 -33.3800354 378.05667114 C-34.45835632 378.52757172 -35.53667725 378.99847229 -36.64767456 379.48364258 C-38.94322569 380.47978654 -41.23879927 381.47587877 -43.53439331 382.47192383 C-47.14509482 384.04220159 -50.75527285 385.61367051 -54.36495972 387.1862793 C-57.85371209 388.70512428 -61.34433578 390.21960043 -64.83517456 391.73364258 C-65.92159241 392.20859161 -67.00801025 392.68354065 -68.12734985 393.17288208 C-69.62966156 393.82388382 -69.62966156 393.82388382 -71.162323 394.48803711 C-72.04579407 394.87283234 -72.92926514 395.25762756 -73.83950806 395.65408325 C-75.97579956 396.47583008 -75.97579956 396.47583008 -77.97579956 396.47583008 C-78.117677 397.04438721 -78.25955444 397.61294434 -78.4057312 398.19873047 C-80.70991366 407.04055678 -83.60036324 415.67385687 -86.53659058 424.32128906 C-87.41844529 426.92854371 -88.28395213 429.54090041 -89.14962769 432.15356445 C-89.71438217 433.82252321 -90.28010284 435.49115541 -90.84689331 437.15942383 C-91.22834755 438.32350014 -91.22834755 438.32350014 -91.61750793 439.51109314 C-93.06970243 443.71756346 -94.37223025 446.63631297 -97.97579956 449.47583008 C-101.41429193 450.8331297 -102.68256918 450.59082239 -106.16329956 449.22583008 C-108.97579956 447.47583008 -108.97579956 447.47583008 -110.97579956 444.47583008 C-111.7779636 437.68186425 -109.49143431 431.61521213 -107.46017456 425.19067383 C-106.90357147 423.4289962 -106.90357147 423.4289962 -106.33572388 421.63172913 C-105.54507694 419.15444898 -104.74786883 416.67925457 -103.94454956 414.20605469 C-103.13351346 411.68212723 -102.34237678 409.15171669 -101.57150269 406.61523438 C-100.45342349 402.93727943 -99.27659633 399.28293679 -98.08517456 395.62817383 C-97.75338196 394.49991684 -97.42158936 393.37165985 -97.07974243 392.20921326 C-95.02055147 386.14808787 -93.19005246 382.99760224 -87.39523315 380.04003906 C-85.26895097 379.15218197 -83.12865916 378.29714712 -80.97579956 377.47583008 C-79.02988657 376.61302932 -77.08694444 375.74349387 -75.14718628 374.86694336 C-73.15160994 374.00615872 -71.15432293 373.14933089 -69.15548706 372.29614258 C-68.08960358 371.83851532 -67.02372009 371.38088806 -65.92553711 370.90939331 C-63.69956308 369.95482651 -61.47281979 369.00205168 -59.24533081 368.05102539 C-55.8223974 366.58869624 -52.40289254 365.11855238 -48.98361206 363.64770508 C-46.81193623 362.71755242 -44.64006824 361.78784826 -42.46798706 360.85864258 C-41.4441391 360.41811554 -40.42029114 359.9775885 -39.36541748 359.52371216 C-37.95221725 358.9221077 -37.95221725 358.9221077 -36.51046753 358.30834961 C-35.26570145 357.77590134 -35.26570145 357.77590134 -33.99578857 357.23269653 C-31.97579956 356.47583008 -31.97579956 356.47583008 -29.97579956 356.47583008 C-30.29742065 355.90888428 -30.61904175 355.34193848 -30.95040894 354.7578125 C-45.725875 328.57140786 -56.84354362 302.11211506 -60.05392456 272.01098633 C-60.14367554 271.18602661 -60.23342651 270.36106689 -60.32589722 269.5111084 C-60.5444648 267.4995581 -60.76040665 265.48772279 -60.97579956 263.47583008 C-69.66011434 265.41247539 -78.34405119 267.35080393 -87.02750874 269.29128933 C-91.05948538 270.19225627 -95.09159035 271.09264032 -99.12399292 271.99169922 C-103.01462634 272.85917186 -106.90491693 273.72816653 -110.79497337 274.59822273 C-112.28001963 274.93008854 -113.76518912 275.26140341 -115.25048256 275.59216118 C-117.32892708 276.05510514 -119.40692698 276.51999641 -121.48483276 276.98535156 C-123.26021172 277.38173073 -123.26021172 277.38173073 -125.07145691 277.78611755 C-129.70400438 278.88623775 -131.32558602 279.56241358 -133.8991394 283.53320312 C-134.46337616 284.39467453 -135.02761292 285.25614594 -135.60894775 286.14372253 C-136.21211823 287.08218521 -136.8152887 288.02064789 -137.43673706 288.98754883 C-138.06431915 289.94852982 -138.69190125 290.9095108 -139.33850098 291.89961243 C-141.35036599 294.98254261 -143.35119205 298.07243821 -145.35079956 301.16333008 C-147.34474458 304.23536295 -149.3410503 307.30580203 -151.3416748 310.37348938 C-152.58694555 312.28396903 -153.82816394 314.19709793 -155.0647583 316.11320496 C-163.16764518 328.57175289 -163.16764518 328.57175289 -166.97579956 330.47583008 C-171.26902815 330.96185596 -173.29662595 330.93824615 -176.91329956 328.47583008 C-179.06509498 325.34594582 -179.53173821 323.53357614 -179.41989136 319.77090454 C-178.50857514 315.06120581 -175.58817625 311.34912076 -172.91329956 307.45629883 C-171.97623169 306.04747185 -171.97623169 306.04747185 -171.02023315 304.61018372 C-169.02240917 301.6161041 -166.99945752 298.63999255 -164.97579956 295.66333008 C-163.64473807 293.67418842 -162.31529403 291.68396341 -160.98751831 289.69262695 C-158.45202025 285.89622763 -155.88734428 282.12256263 -153.29611206 278.36401367 C-151.3588834 275.54889433 -149.49676276 272.73375839 -147.78048706 269.77905273 C-144.29658174 264.10356736 -141.71447774 261.985407 -135.16769409 260.41894531 C-134.50767458 260.25689983 -133.84765507 260.09485435 -133.16763496 259.92789841 C-131.10727098 259.4270765 -129.04253463 258.94959507 -126.97579956 258.47583008 C-125.74279114 258.1841243 -124.50978271 257.89241852 -123.2394104 257.59187317 C-119.46623856 256.7126115 -115.68745862 255.86327494 -111.90548706 255.02270508 C-110.52640166 254.71465747 -109.1473434 254.40648835 -107.76831055 254.09820557 C-104.91347206 253.4608452 -102.05810551 252.82591961 -99.20236206 252.19262695 C-95.55085427 251.38250484 -91.9011432 250.5645731 -88.25181389 249.74470139 C-85.41988649 249.10964103 -82.58689431 248.47943954 -79.75357437 247.85062408 C-78.4064416 247.55088649 -77.05968034 247.24947386 -75.71331406 246.94631195 C-73.83953664 246.52498826 -71.96409442 246.11108941 -70.08859253 245.69750977 C-68.49432938 245.34254425 -68.49432938 245.34254425 -66.86785889 244.98040771 C-64.16461925 244.50877345 -61.71193939 244.37718853 -58.97579956 244.47583008 C-58.9946521 243.69111328 -59.01350464 242.90639648 -59.03292847 242.09790039 C-59.1422503 233.99366831 -58.53934123 226.2371846 -57.35079956 218.22583008 C-57.17766235 217.03086914 -57.00452515 215.8359082 -56.82614136 214.60473633 C-54.96155766 202.37500032 -52.09418312 190.43744762 -48.97579956 178.47583008 C-48.64073892 177.14292976 -48.30678202 175.80974893 -47.97579956 174.47583008 C-48.56570679 174.20053467 -49.15561401 173.92523926 -49.76339722 173.64160156 C-51.87761196 172.52756764 -53.53896298 171.34390824 -55.37423706 169.82348633 C-56.0118396 169.29948242 -56.64944214 168.77547852 -57.30636597 168.2355957 C-57.98102905 167.67549805 -58.65569214 167.11540039 -59.35079956 166.53833008 C-60.78229442 165.36157885 -62.21460199 164.18581567 -63.64767456 163.01098633 C-64.36890503 162.41946777 -65.0901355 161.82794922 -65.83322144 161.21850586 C-69.60781523 158.14842262 -73.44237194 155.15561713 -77.2819519 152.16748047 C-79.85812942 150.1580933 -82.24842469 148.19751877 -84.53927612 145.85888672 C-88.6554128 142.4417898 -92.90527426 142.81722374 -98.04611206 142.90942383 C-99.00476166 142.90378922 -99.96341125 142.8981546 -100.95111084 142.89234924 C-104.00150931 142.87593523 -107.05045197 142.8914215 -110.10079956 142.91333008 C-113.1581491 142.92992258 -116.21454756 142.93903387 -119.27191162 142.92359924 C-121.1706166 142.91431567 -123.06952276 142.92349565 -124.96801758 142.95323181 C-131.34028216 142.92674249 -131.34028216 142.92674249 -134.52999878 140.66357422 C-136.58427682 137.5550998 -136.91077027 135.1824999 -136.97579956 131.47583008 C-135.76320639 128.44434716 -134.86238626 126.96981527 -132.00094604 125.37548828 C-124.77373658 123.22616483 -116.77128213 123.81869504 -109.28707886 123.72070312 C-107.13679436 123.68272936 -104.98678337 123.62153895 -102.83786011 123.53613281 C-90.91035477 123.06653152 -81.49875127 122.77643273 -72.32206726 131.12353516 C-70.85109885 132.55177344 -69.41229597 134.01292518 -67.97579956 135.47583008 C-66.48934257 136.71099102 -64.98678638 137.92737656 -63.46017456 139.11254883 C-62.21447534 140.12836399 -60.96965313 141.14525578 -59.72579956 142.16333008 C-58.38749701 143.25476918 -57.04895537 144.34591517 -55.71017456 145.43676758 C-55.0778894 145.95207031 -54.44560425 146.46737305 -53.79415894 146.99829102 C-49.8750456 150.1828337 -45.9273611 153.33167895 -41.97579956 156.47583008 C-39.2168646 153.71689512 -38.04335731 150.36554916 -36.47579956 146.85083008 C-30.06861492 132.95207698 -22.35243145 119.90440931 -10.97579956 109.47583008 C-10.31579956 109.47583008 -9.65579956 109.47583008 -8.97579956 109.47583008 C-8.96161987 108.71141602 -8.94744019 107.94700195 -8.93283081 107.15942383 C-7.97725116 85.69762141 2.81791338 69.53254245 16.02420044 53.47583008 C17.35971877 51.81091376 18.69390168 50.14491988 20.02420044 48.47583008 C15.86207238 43.50569168 11.52389368 38.85149061 6.91091919 34.30004883 C6.2558992 33.64881546 5.60087921 32.99758209 4.92601013 32.32661438 C2.85700663 30.26971781 0.7847691 28.21612895 -1.28829956 26.16333008 C-4.03724483 23.44092329 -6.78289601 20.71525591 -9.52658081 17.98754883 C-10.15881058 17.3636174 -10.79104034 16.73968597 -11.44242859 16.09684753 C-16.87768215 10.692486 -16.87768215 10.692486 -17.28829956 5.60083008 C-17.24870555 2.48421548 -17.11306925 1.66702715 -15.22579956 -0.96166992 C-10.02790621 -4.57131808 -4.96799809 -3.83240963 0 0 Z " fill="#EFC319" transform="translate(178.97579956054688,32.524169921875)"/>
<path d="M0 0 C2.18715369 2.02811962 4.28294208 4.12025302 6.36404419 6.25708008 C7.13100113 7.02636841 7.89795807 7.79565674 8.68815613 8.58825684 C10.29998367 10.20979808 11.90579413 11.83734 13.50588989 13.47045898 C15.96529048 15.97949257 18.44308219 18.46914737 20.92459106 20.95629883 C22.48884681 22.53463183 24.05203625 24.11402249 25.61404419 25.69458008 C26.35766708 26.44356567 27.10128998 27.19255127 27.8674469 27.9642334 C28.88464561 29.00541321 28.88464561 29.00541321 29.9223938 30.06762695 C30.82338051 30.98457336 30.82338051 30.98457336 31.74256897 31.92004395 C33.02420044 33.47583008 33.02420044 33.47583008 33.02420044 35.47583008 C33.88400513 35.01692383 34.74380981 34.55801758 35.62966919 34.08520508 C58.72631413 21.98256313 85.30095359 17.88396758 110.56716919 25.22973633 C115.73968054 27.09417827 120.32943086 29.64765563 125.02420044 32.47583008 C126.35390693 33.14970162 127.68671094 33.81754133 129.02420044 34.47583008 C129.67740013 33.8059758 129.67740013 33.8059758 130.34379578 33.12258911 C134.88742601 28.46815667 139.4487082 23.83156648 144.02053833 19.20483398 C145.72335429 17.47690752 147.42165144 15.74451555 149.11526489 14.00756836 C151.5535616 11.50847517 154.00777562 9.02600804 156.46560669 6.54614258 C157.21693375 5.76900909 157.9682608 4.99187561 158.74235535 4.19119263 C162.97554952 -0.04422127 165.99819404 -2.71625003 172.02420044 -3.52416992 C175.29875854 -2.41205585 177.26219048 -1.45183421 179.46170044 1.22583008 C180.35019449 4.77980627 180.02990243 6.92629365 179.02420044 10.47583008 C173.20690736 18.75505781 164.87169934 25.73879982 157.71170044 32.85083008 C156.41133645 34.14616835 155.11120434 35.44173945 153.81130981 36.73754883 C151.44579189 39.09494361 149.07903605 41.45107792 146.71047974 43.80541992 C145.14641626 45.36024373 143.58365092 46.91637959 142.02420044 48.47583008 C142.56947388 49.04688477 143.11474731 49.61793945 143.67654419 50.20629883 C157.1384619 64.68073685 172.09504682 85.23943126 171.43826294 106.07739258 C168.16854087 132.91379071 156.99136455 158.17606008 136.23513794 175.85083008 C116.10502614 191.16595837 90.44015143 195.95026342 65.62576294 193.01098633 C44.64295774 190.02498088 25.91639695 179.94285376 12.51248169 163.37036133 C-0.06183363 145.84317479 -11.17212117 121.86419591 -8.60470581 99.78442383 C-5.14083611 81.56145717 4.47367027 67.51940946 16.02420044 53.47583008 C17.35971877 51.81091376 18.69390168 50.14491988 20.02420044 48.47583008 C15.86207238 43.50569168 11.52389368 38.85149061 6.91091919 34.30004883 C6.2558992 33.64881546 5.60087921 32.99758209 4.92601013 32.32661438 C2.85700663 30.26971781 0.7847691 28.21612895 -1.28829956 26.16333008 C-4.03724483 23.44092329 -6.78289601 20.71525591 -9.52658081 17.98754883 C-10.15881058 17.3636174 -10.79104034 16.73968597 -11.44242859 16.09684753 C-16.87768215 10.692486 -16.87768215 10.692486 -17.28829956 5.60083008 C-17.24870555 2.48421548 -17.11306925 1.66702715 -15.22579956 -0.96166992 C-10.02790621 -4.57131808 -4.96799809 -3.83240963 0 0 Z " fill="#38454E" transform="translate(178.97579956054688,32.524169921875)"/>
<path d="M0 0 C0.70688965 0.29471191 1.4137793 0.58942383 2.14208984 0.89306641 C20.52954176 8.80514294 35.95094434 22.43396448 43.91210938 41.14355469 C48.24926656 52.1970822 50.15246661 61.77683594 50.11352539 73.69677734 C50.11367142 74.86808197 50.11381744 76.0393866 50.1139679 77.2461853 C50.11327243 81.10945501 50.10549709 84.97267623 50.09765625 88.8359375 C50.09579077 91.51779258 50.09431827 94.19964499 50.09336853 96.88150024 C50.09026527 103.2136837 50.08206546 109.54584982 50.07201904 115.87802565 C50.06082665 123.08963339 50.05533958 130.30124198 50.05032361 137.51285625 C50.03988199 152.34191302 50.02230205 167.17095621 50 182 C38.46469947 179.98108249 29.20789068 168.88999959 21 161 C20.29617187 160.32582031 19.59234375 159.65164063 18.8671875 158.95703125 C15.34866471 155.50951004 12.08262344 151.88210899 8.87109375 148.1484375 C6.85150724 145.82949683 4.77034766 143.57471415 2.6875 141.3125 C-2.58027516 135.49070021 -7.2900052 129.27343774 -12 123 C-15.86809256 124.24679655 -19.60593282 125.623246 -23.33105469 127.24658203 C-24.34520447 127.68688751 -25.35935425 128.12719299 -26.40423584 128.58084106 C-27.48255676 129.05174164 -28.56087769 129.52264221 -29.671875 130.0078125 C-31.96742613 131.00395647 -34.26299971 132.00004869 -36.55859375 132.99609375 C-40.16929526 134.56637151 -43.77947329 136.13784043 -47.38916016 137.71044922 C-50.87791253 139.2292942 -54.36853622 140.74377036 -57.859375 142.2578125 C-58.94579285 142.73276154 -60.03221069 143.20771057 -61.15155029 143.697052 C-62.15309143 144.13105316 -63.15463257 144.56505432 -64.18652344 145.01220703 C-65.06999451 145.39700226 -65.95346558 145.78179749 -66.8637085 146.17825317 C-69 147 -69 147 -71 147 C-71.14187744 147.56855713 -71.28375488 148.13711426 -71.42993164 148.72290039 C-73.7341141 157.5647267 -76.62456368 166.19802679 -79.56079102 174.84545898 C-80.44264573 177.45271363 -81.30815257 180.06507033 -82.17382812 182.67773438 C-82.73858261 184.34669313 -83.30430328 186.01532533 -83.87109375 187.68359375 C-84.25254799 188.84767006 -84.25254799 188.84767006 -84.64170837 190.03526306 C-86.09390287 194.24173338 -87.39643069 197.16048289 -91 200 C-94.43849237 201.35729962 -95.70676961 201.11499231 -99.1875 199.75 C-102 198 -102 198 -104 195 C-104.80216404 188.20603418 -102.51563475 182.13938205 -100.484375 175.71484375 C-100.11330627 174.540392 -99.74223755 173.36594025 -99.35992432 172.15589905 C-98.56927738 169.6786189 -97.77206927 167.20342449 -96.96875 164.73022461 C-96.1577139 162.20629715 -95.36657722 159.67588661 -94.59570312 157.1394043 C-93.47762393 153.46144935 -92.30079677 149.80710671 -91.109375 146.15234375 C-90.7775824 145.02408676 -90.44578979 143.89582977 -90.10394287 142.73338318 C-88.04475191 136.6722578 -86.2142529 133.52177216 -80.41943359 130.56420898 C-78.29315141 129.67635189 -76.1528596 128.82131704 -74 128 C-72.05408701 127.13719924 -70.11114488 126.26766379 -68.17138672 125.39111328 C-66.17581038 124.53032864 -64.17852337 123.67350081 -62.1796875 122.8203125 C-61.11380402 122.36268524 -60.04792053 121.90505798 -58.94973755 121.43356323 C-56.72376352 120.47899643 -54.49702023 119.5262216 -52.26953125 118.57519531 C-48.84659783 117.11286616 -45.42709298 115.6427223 -42.0078125 114.171875 C-39.83613667 113.24172234 -37.66426868 112.31201818 -35.4921875 111.3828125 C-33.95641556 110.72202194 -33.95641556 110.72202194 -32.38961792 110.04788208 C-30.97641769 109.44627762 -30.97641769 109.44627762 -29.53466797 108.83251953 C-28.70482391 108.47755402 -27.87497986 108.1225885 -27.01998901 107.75686646 C-25 107 -25 107 -23 107 C-23.32162109 106.4330542 -23.64324219 105.8661084 -23.97460938 105.28198242 C-38.75007544 79.09557779 -49.86774406 52.63628498 -53.078125 22.53515625 C-53.21275146 21.29771667 -53.21275146 21.29771667 -53.35009766 20.03527832 C-53.56866524 18.02372802 -53.78460709 16.01189271 -54 14 C-62.68431478 15.93664531 -71.36825163 17.87497385 -80.05170918 19.81545925 C-84.08368582 20.71642619 -88.11579079 21.61681025 -92.14819336 22.51586914 C-96.03882678 23.38334178 -99.92911736 24.25233645 -103.81917381 25.12239265 C-105.30422007 25.45425846 -106.78938956 25.78557333 -108.274683 26.1163311 C-110.35312752 26.57927506 -112.43112742 27.04416633 -114.5090332 27.50952148 C-115.69261917 27.77377426 -116.87620514 28.03802704 -118.09565735 28.31028748 C-122.72820482 29.41040767 -124.34978646 30.0865835 -126.92333984 34.05737305 C-127.4875766 34.91884445 -128.05181335 35.78031586 -128.63314819 36.66789246 C-129.5379039 38.07558647 -129.5379039 38.07558647 -130.4609375 39.51171875 C-131.08851959 40.47269974 -131.71610168 41.43368073 -132.36270142 42.42378235 C-134.37456643 45.50671253 -136.37539249 48.59660813 -138.375 51.6875 C-140.36894502 54.75953287 -142.36525074 57.82997196 -144.36587524 60.8976593 C-145.61114599 62.80813895 -146.85236438 64.72126785 -148.08895874 66.63737488 C-156.19184562 79.09592281 -156.19184562 79.09592281 -160 81 C-164.29322859 81.48602588 -166.32082639 81.46241608 -169.9375 79 C-172.08929542 75.87011575 -172.55593865 74.05774607 -172.4440918 70.29507446 C-171.53277558 65.58537574 -168.61237669 61.87329069 -165.9375 57.98046875 C-165.31278809 57.04125076 -164.68807617 56.10203278 -164.04443359 55.13435364 C-162.04660961 52.14027402 -160.02365796 49.16416248 -158 46.1875 C-156.66893851 44.19835834 -155.33949447 42.20813333 -154.01171875 40.21679688 C-151.47622068 36.42039755 -148.91154472 32.64673255 -146.3203125 28.88818359 C-144.38308384 26.07306425 -142.5209632 23.25792831 -140.8046875 20.30322266 C-137.51935634 14.9512262 -134.97937753 12.49641522 -128.87890625 10.765625 C-126.79883081 10.31937688 -124.71369301 9.91931529 -122.62237549 9.52905273 C-118.33913334 8.66492745 -114.11816665 7.55585137 -109.88113403 6.49113464 C-30.99862152 -13.15536235 -30.99862152 -13.15536235 0 0 Z " fill="#EEC319" transform="translate(172,282)"/>
<path d="M0 0 C0.75683075 -0.01823822 1.5136615 -0.03647644 2.29342651 -0.05526733 C21.50209098 -0.25939948 39.95257358 4.76915413 58.4375 9.4375 C59.20886543 9.63041122 59.98023087 9.82332245 60.77497101 10.02207947 C65.27384111 11.14777454 69.76512155 12.29803477 74.2476368 13.48726082 C75.63390167 13.85409475 77.02141974 14.21622916 78.41021538 14.57336235 C80.33421895 15.07182307 82.25142598 15.59629713 84.16821289 16.12182617 C85.25050674 16.41272629 86.3328006 16.7036264 87.44789124 17.00334167 C92.52641787 19.16629086 95.51224415 23.14803721 98.52539062 27.63793945 C99.37151917 28.88997917 99.37151917 28.88997917 100.23474121 30.16731262 C100.82758911 31.05698227 101.42043701 31.94665192 102.03125 32.86328125 C102.6560022 33.79166306 103.28075439 34.72004486 103.92443848 35.67655945 C105.91322811 38.63504085 107.89404094 41.59877129 109.875 44.5625 C111.20654507 46.5439466 112.5385715 48.5250698 113.87109375 50.50585938 C115.15407506 52.41637849 116.43664081 54.32717676 117.71875 56.23828125 C118.3115979 57.1218782 118.9044458 58.00547516 119.51525879 58.91584778 C121.14476162 61.35438544 122.76258412 63.80013899 124.375 66.25 C124.87088623 66.99357758 125.36677246 67.73715515 125.87768555 68.50326538 C126.33119385 69.19981232 126.78470215 69.89635925 127.25195312 70.61401367 C127.64870239 71.21759201 128.04545166 71.82117035 128.45422363 72.44303894 C130.23705779 75.94172983 130.00895104 78.38289865 129.375 82.25 C127.3125 85.25 127.3125 85.25 124.375 87.25 C120.53937995 87.86643894 118.40831378 87.88689764 115.07446289 85.83203125 C111.21158008 82.137191 108.5596284 77.85928035 105.68359375 73.375 C105.05646988 72.41352051 104.42934601 71.45204102 103.78321838 70.46142578 C101.7850444 67.39602387 99.79799258 64.32362816 97.8125 61.25 C95.82224302 58.17718753 93.82956121 55.10603822 91.83106995 52.03857422 C90.58943807 50.13204879 89.35269192 48.22233037 88.1214447 46.30908203 C87.55728348 45.44138184 86.99312225 44.57368164 86.41186523 43.6796875 C85.92064682 42.91897949 85.42942841 42.15827148 84.92332458 41.37451172 C81.55458489 36.7521431 79.01610767 34.78438758 73.41308594 33.41894531 C72.21214294 33.11893616 71.01119995 32.818927 69.77386475 32.50982666 C68.46910736 32.19895489 67.16427564 31.88839491 65.859375 31.578125 C64.51957275 31.24877396 63.18007823 30.91816875 61.84088135 30.58636475 C58.32576543 29.71900661 54.80674191 28.86869358 51.28662109 28.02191162 C47.69116025 27.15380721 44.09967246 26.26958066 40.5078125 25.38671875 C33.46732281 23.65871163 26.42262515 21.94869953 19.375 20.25 C19.30032249 21.12322151 19.30032249 21.12322151 19.22413635 22.01408386 C18.98999866 24.7117645 18.7469891 27.40858 18.50390625 30.10546875 C18.42579712 31.02066284 18.34768799 31.93585693 18.26721191 32.87878418 C15.73247514 60.60208595 4.78054695 89.14167957 -10.625 112.25 C-8.16968354 113.56835593 -5.71074999 114.87933752 -3.25 116.1875 C-2.44232178 116.620625 -1.63464355 117.05375 -0.80249023 117.5 C4.3342026 120.22250747 9.51503293 122.81161466 14.77954102 125.27577209 C17.85945983 126.71937101 20.92767213 128.18709621 23.99615479 129.65481567 C25.53289055 130.38139516 27.07520611 131.09629537 28.62298584 131.79904175 C30.83558075 132.80520188 33.02522417 133.85120427 35.21484375 134.90625 C36.20914146 135.33908043 36.20914146 135.33908043 37.223526 135.78065491 C42.24022792 138.27121181 43.71638297 141.31197244 45.50819397 146.52127075 C45.79423996 147.4217514 46.08028595 148.32223206 46.375 149.25 C46.98356379 150.96897707 47.59391991 152.68732064 48.20605469 154.4050293 C48.82317596 156.21022814 49.43666136 158.01667322 50.046875 159.82421875 C50.53779633 161.276325 50.53779633 161.276325 51.03863525 162.75776672 C51.72260707 164.78658775 52.40485909 166.81598932 53.08544922 168.84594727 C54.12682977 171.94294161 55.18250946 175.03484007 56.23828125 178.12695312 C56.904536 180.10907601 57.5699307 182.09148824 58.234375 184.07421875 C58.54993347 184.99103928 58.86549194 185.9078598 59.19061279 186.85246277 C60.8204401 191.77555439 61.94996604 195.99479354 61.375 201.25 C59.11831324 204.21593118 57.38615924 205.83516544 53.9375 207.25 C50.30904177 207.25 48.42767803 206.20490126 45.375 204.25 C43.99331314 201.77381598 43.08157078 199.76428636 42.203125 197.12109375 C41.95040833 196.41367538 41.69769165 195.70625702 41.43731689 194.97740173 C39.97429192 190.68678943 38.96634378 186.46262744 38.25372314 181.99031067 C36.46012631 170.74734173 34.10435988 158.70538 24.83837891 151.19360352 C10.35853036 141.32715852 -6.37872581 134.62872362 -22.625 128.25 C-22.9235791 128.86697754 -23.2221582 129.48395508 -23.52978516 130.11962891 C-25.84390779 134.620974 -29.41529778 138.36620846 -32.625 142.25 C-33.41261719 143.22582031 -34.20023437 144.20164062 -35.01171875 145.20703125 C-41.18770535 152.72921538 -47.88112485 159.73761292 -54.7260437 166.64859009 C-55.72818061 167.66056033 -56.72802855 168.67480336 -57.72537231 169.6914978 C-65.47662144 177.57417654 -72.93842241 184.81580059 -83.625 188.25 C-83.71886721 172.74995616 -83.78918522 157.24993387 -83.83224869 141.74967194 C-83.85278442 134.55095357 -83.8807305 127.35241285 -83.92675781 120.15380859 C-83.96690367 113.87200555 -83.99249794 107.59033128 -84.00135398 101.30840349 C-84.00652252 97.98882411 -84.02064772 94.66990191 -84.04792023 91.35038757 C-84.24169481 66.76968855 -81.82043531 46.25548113 -64.625 27.25 C-63.95984375 26.49203125 -63.2946875 25.7340625 -62.609375 24.953125 C-46.3059566 7.44204598 -23.43460019 0.5422353 0 0 Z " fill="#EFC319" transform="translate(382.625,275.75)"/>
<path d="M0 0 C0.70688965 0.29471191 1.4137793 0.58942383 2.14208984 0.89306641 C20.52954176 8.80514294 35.95094434 22.43396448 43.91210938 41.14355469 C48.24926656 52.1970822 50.15246661 61.77683594 50.11352539 73.69677734 C50.11367142 74.86808197 50.11381744 76.0393866 50.1139679 77.2461853 C50.11327243 81.10945501 50.10549709 84.97267623 50.09765625 88.8359375 C50.09579077 91.51779258 50.09431827 94.19964499 50.09336853 96.88150024 C50.09026527 103.2136837 50.08206546 109.54584982 50.07201904 115.87802565 C50.06082665 123.08963339 50.05533958 130.30124198 50.05032361 137.51285625 C50.03988199 152.34191302 50.02230205 167.17095621 50 182 C45.4735455 181.24590829 42.92995671 179.78483211 39.25 177 C38.28578125 176.278125 37.3215625 175.55625 36.328125 174.8125 C34 173 34 173 33 172 C32.89900126 170.62306475 32.86649383 169.24102435 32.86196899 167.86039734 C32.85651566 166.96763596 32.85106232 166.07487457 32.84544373 165.15505981 C32.8444014 164.16762787 32.84335907 163.18019592 32.84228516 162.1628418 C32.83720444 161.12858566 32.83212372 160.09432953 32.82688904 159.0287323 C32.81615552 156.77246141 32.80754714 154.51617966 32.80076981 152.25989342 C32.78900501 148.68173508 32.76955412 145.10369878 32.74765015 141.52558899 C32.68598297 131.34807443 32.63214121 121.17056907 32.59863281 110.99291992 C32.57760269 104.77358119 32.5422214 98.55445936 32.49787521 92.33524513 C32.48376861 89.96997457 32.47500492 87.60466557 32.47182083 85.23935509 C32.46687284 81.91284155 32.44361112 78.58689499 32.41650391 75.26049805 C32.41951004 74.29533264 32.42251617 73.33016724 32.4256134 72.33575439 C32.23140512 56.16286791 26.08489022 41.73927551 15 30 C-0.14108122 15.45625131 -19.33231191 11.91330275 -39.63059998 12.19474792 C-53.74472899 12.60862352 -67.3164162 16.15661361 -80.90339661 19.75645447 C-81.80539291 19.99537918 -82.70738922 20.23430389 -83.63671875 20.48046875 C-84.5292485 20.71838638 -85.42177826 20.95630402 -86.34135437 21.20143127 C-91.72871899 22.5845723 -96.84716438 23.38804853 -102.39453125 23.67578125 C-111.39664733 24.37461764 -119.50378568 25.26384622 -125.96722412 32.07220459 C-134.83159384 42.7123795 -141.98678415 54.75596827 -148.77763367 66.79093933 C-155.54644261 78.7732213 -155.54644261 78.7732213 -160 81 C-164.29322859 81.48602588 -166.32082639 81.46241608 -169.9375 79 C-172.08929542 75.87011575 -172.55593865 74.05774607 -172.4440918 70.29507446 C-171.53277558 65.58537574 -168.61237669 61.87329069 -165.9375 57.98046875 C-165.31278809 57.04125076 -164.68807617 56.10203278 -164.04443359 55.13435364 C-162.04660961 52.14027402 -160.02365796 49.16416248 -158 46.1875 C-156.66893851 44.19835834 -155.33949447 42.20813333 -154.01171875 40.21679688 C-151.47622068 36.42039755 -148.91154472 32.64673255 -146.3203125 28.88818359 C-144.38308384 26.07306425 -142.5209632 23.25792831 -140.8046875 20.30322266 C-137.51935634 14.9512262 -134.97937753 12.49641522 -128.87890625 10.765625 C-126.79883081 10.31937688 -124.71369301 9.91931529 -122.62237549 9.52905273 C-118.33913334 8.66492745 -114.11816665 7.55585137 -109.88113403 6.49113464 C-30.99862152 -13.15536235 -30.99862152 -13.15536235 0 0 Z " fill="#39464E" transform="translate(172,282)"/>
<path d="M0 0 C0.75683075 -0.01823822 1.5136615 -0.03647644 2.29342651 -0.05526733 C21.50209098 -0.25939948 39.95257358 4.76915413 58.4375 9.4375 C59.20886543 9.63041122 59.98023087 9.82332245 60.77497101 10.02207947 C65.27384111 11.14777454 69.76512155 12.29803477 74.2476368 13.48726082 C75.63390167 13.85409475 77.02141974 14.21622916 78.41021538 14.57336235 C80.33421895 15.07182307 82.25142598 15.59629713 84.16821289 16.12182617 C85.25050674 16.41272629 86.3328006 16.7036264 87.44789124 17.00334167 C92.52641787 19.16629086 95.51224415 23.14803721 98.52539062 27.63793945 C99.37151917 28.88997917 99.37151917 28.88997917 100.23474121 30.16731262 C100.82758911 31.05698227 101.42043701 31.94665192 102.03125 32.86328125 C102.6560022 33.79166306 103.28075439 34.72004486 103.92443848 35.67655945 C105.91322811 38.63504085 107.89404094 41.59877129 109.875 44.5625 C111.20654507 46.5439466 112.5385715 48.5250698 113.87109375 50.50585938 C115.15407506 52.41637849 116.43664081 54.32717676 117.71875 56.23828125 C118.3115979 57.1218782 118.9044458 58.00547516 119.51525879 58.91584778 C121.14476162 61.35438544 122.76258412 63.80013899 124.375 66.25 C124.87088623 66.99357758 125.36677246 67.73715515 125.87768555 68.50326538 C126.33119385 69.19981232 126.78470215 69.89635925 127.25195312 70.61401367 C127.64870239 71.21759201 128.04545166 71.82117035 128.45422363 72.44303894 C130.23705779 75.94172983 130.00895104 78.38289865 129.375 82.25 C127.3125 85.25 127.3125 85.25 124.375 87.25 C120.53937995 87.86643894 118.40831378 87.88689764 115.07446289 85.83203125 C111.21158008 82.137191 108.5596284 77.85928035 105.68359375 73.375 C105.05646988 72.41352051 104.42934601 71.45204102 103.78321838 70.46142578 C101.7850444 67.39602387 99.79799258 64.32362816 97.8125 61.25 C95.82224302 58.17718753 93.82956121 55.10603822 91.83106995 52.03857422 C90.58943807 50.13204879 89.35269192 48.22233037 88.1214447 46.30908203 C87.55728348 45.44138184 86.99312225 44.57368164 86.41186523 43.6796875 C85.92064682 42.91897949 85.42942841 42.15827148 84.92332458 41.37451172 C81.5582763 36.75720822 79.02931004 34.78748598 73.42895508 33.43481445 C72.23123978 33.13803299 71.03352448 32.84125153 69.79951477 32.53547668 C68.49790027 32.22788063 67.19623795 31.9204869 65.89453125 31.61328125 C64.55710098 31.28642941 63.22000232 30.95821793 61.88322449 30.62870789 C58.37335299 29.76690334 54.85973577 28.92153779 51.34490967 28.0802002 C45.70757879 26.72744492 40.07668715 25.34804904 34.44504356 23.97185326 C32.47559533 23.49279685 30.50479497 23.01968597 28.53364563 22.54768372 C27.34538681 22.26035873 26.15712799 21.97303375 24.93286133 21.67700195 C23.8812532 21.424814 22.82964508 21.17262604 21.74617004 20.91279602 C19.375 20.25 19.375 20.25 18.375 19.25 C13.91101438 18.97946672 9.44069557 18.97838946 4.96948242 18.95483398 C3.4713384 18.94345405 1.97323022 18.92323195 0.4753418 18.89331055 C-18.03693941 18.52360193 -34.77255245 23.00926709 -48.53198242 36.01000977 C-57.91700298 45.28548364 -65.62572991 58.79550505 -65.82945251 72.25193787 C-65.81954028 74.20376236 -65.79879245 76.1555511 -65.76928711 78.10717773 C-65.76166351 79.17799591 -65.75403992 80.24881409 -65.7461853 81.3520813 C-65.72968908 83.66886254 -65.70930076 85.98561866 -65.68543816 88.30233574 C-65.62884489 94.51198819 -65.62951111 100.72177056 -65.61914062 106.93164062 C-65.60159999 114.82380795 -65.56745616 122.71498184 -65.4777832 130.60668945 C-65.40667371 136.99539237 -65.38913848 143.38230019 -65.40704536 149.77134895 C-65.40392557 152.20146291 -65.38106305 154.63163627 -65.33790398 157.06136894 C-65.01492404 176.0023742 -65.01492404 176.0023742 -68.94509888 181.48880005 C-73.48255859 184.93321328 -78.23680413 186.53579082 -83.625 188.25 C-83.71886721 172.74995616 -83.78918522 157.24993387 -83.83224869 141.74967194 C-83.85278442 134.55095357 -83.8807305 127.35241285 -83.92675781 120.15380859 C-83.96690367 113.87200555 -83.99249794 107.59033128 -84.00135398 101.30840349 C-84.00652252 97.98882411 -84.02064772 94.66990191 -84.04792023 91.35038757 C-84.24169481 66.76968855 -81.82043531 46.25548113 -64.625 27.25 C-63.95984375 26.49203125 -63.2946875 25.7340625 -62.609375 24.953125 C-46.3059566 7.44204598 -23.43460019 0.5422353 0 0 Z " fill="#3A464E" transform="translate(382.625,275.75)"/>
<path d="M0 0 C2.10546875 2.51953125 2.10546875 2.51953125 4.1875 5.8125 C4.88230469 6.89144531 5.57710938 7.97039062 6.29296875 9.08203125 C8 12 8 12 9 15 C-3.7060563 20.88884834 -16.49678864 26.56509475 -29.36141968 32.09762573 C-30.95571296 32.78336189 -32.54948298 33.47031587 -34.14273071 34.15847778 C-36.40079302 35.13299202 -38.66095439 36.10245129 -40.921875 37.0703125 C-41.60740952 37.36672134 -42.29294403 37.66313019 -42.99925232 37.96852112 C-47.77039746 40 -47.77039746 40 -50 40 C-50.21281616 40.85283569 -50.21281616 40.85283569 -50.42993164 41.72290039 C-52.7341141 50.5647267 -55.62456368 59.19802679 -58.56079102 67.84545898 C-59.44264573 70.45271363 -60.30815257 73.06507033 -61.17382812 75.67773438 C-61.73858261 77.34669313 -62.30430328 79.01532533 -62.87109375 80.68359375 C-63.12539658 81.45964462 -63.3796994 82.2356955 -63.64170837 83.03526306 C-65.09390287 87.24173338 -66.39643069 90.16048289 -70 93 C-73.43849237 94.35729962 -74.70676961 94.11499231 -78.1875 92.75 C-81 91 -81 91 -83 88 C-83.80216404 81.20603418 -81.51563475 75.13938205 -79.484375 68.71484375 C-79.11330627 67.540392 -78.74223755 66.36594025 -78.35992432 65.15589905 C-77.56927738 62.6786189 -76.77206927 60.20342449 -75.96875 57.73022461 C-75.1577139 55.20629715 -74.36657722 52.67588661 -73.59570312 50.1394043 C-72.47762393 46.46144935 -71.30079677 42.80710671 -70.109375 39.15234375 C-69.7775824 38.02408676 -69.44578979 36.89582977 -69.10394287 35.73338318 C-67.04381858 29.66951059 -65.21322681 26.521598 -59.41503906 23.56420898 C-57.29000608 22.67689047 -55.15121035 21.82182318 -53 21 C-51.06440524 20.13774805 -49.13202994 19.26822859 -47.203125 18.39111328 C-45.22047489 17.5301964 -43.23604298 16.67337323 -41.25 15.8203125 C-40.18885986 15.36268524 -39.12771973 14.90505798 -38.03442383 14.43356323 C-35.81689011 13.47889167 -33.59853839 12.52611807 -31.37939453 11.57519531 C-27.97735025 10.11528034 -24.58045616 8.64379984 -21.18359375 7.171875 C-19.01853289 6.24148041 -16.85317874 5.31176794 -14.6875 4.3828125 C-13.67397461 3.94228546 -12.66044922 3.50175842 -11.61621094 3.04788208 C-10.67422852 2.64681244 -9.73224609 2.2457428 -8.76171875 1.83251953 C-7.93631592 1.47755402 -7.11091309 1.1225885 -6.26049805 0.75686646 C-4 0 -4 0 0 0 Z " fill="#38454E" transform="translate(151,389)"/>
<path d="M0 0 C3.70101081 0.48963132 6.73799906 1.65244527 10.09399414 3.24975586 C11.08174332 3.71792221 12.06949249 4.18608856 13.08717346 4.66844177 C17.57050866 6.8363829 22.05024474 9.01098947 26.51977539 11.20727539 C28.8767233 12.35838075 31.24038328 13.49584569 33.6105957 14.61938477 C37.03898763 16.24519306 40.444309 17.91235524 43.84765625 19.58984375 C44.9050148 20.08193832 45.96237335 20.5740329 47.05177307 21.08103943 C52.02616219 23.58964165 55.30445861 25.46554908 57.4675293 30.73974609 C58.0075167 32.48440334 58.51818803 34.23838923 59 36 C59.60096861 37.72164711 60.21144587 39.44000249 60.83105469 41.1550293 C61.44817596 42.96022814 62.06166136 44.76667322 62.671875 46.57421875 C62.99915588 47.54228958 63.32643677 48.51036041 63.66363525 49.50776672 C64.34760707 51.53658775 65.02985909 53.56598932 65.71044922 55.59594727 C66.75182977 58.69294161 67.80750946 61.78484007 68.86328125 64.87695312 C69.529536 66.85907601 70.1949307 68.84148824 70.859375 70.82421875 C71.17493347 71.74103928 71.49049194 72.6578598 71.81561279 73.60246277 C73.4454401 78.52555439 74.57496604 82.74479354 74 88 C71.74331324 90.96593118 70.01115924 92.58516544 66.5625 94 C62.93417738 94 61.05248342 92.95484551 58 91 C56.62157853 88.5252702 55.71207792 86.51611896 54.8359375 83.875 C54.58363373 83.16778809 54.33132996 82.46057617 54.07138062 81.73193359 C52.60555878 77.43441451 51.57804385 73.18850264 50.82737732 68.71459961 C48.96835809 57.6415045 46.68214803 45.44957718 37.559021 38.00927734 C25.77850918 29.98740897 12.33473128 24.33143199 -0.87532043 19.10546875 C-2.2590107 18.55246094 -2.2590107 18.55246094 -3.6706543 17.98828125 C-4.48495407 17.67415283 -5.29925385 17.36002441 -6.13822937 17.03637695 C-8 16 -8 16 -9 13 C-7.3828125 10.1171875 -7.3828125 10.1171875 -5.125 6.875 C-4.01511719 5.26238281 -4.01511719 5.26238281 -2.8828125 3.6171875 C-1 1 -1 1 0 0 Z " fill="#38454E" transform="translate(370,389)"/>
<path d="M0 0 C1.52793182 0.00774193 1.52793182 0.00774193 3.08673096 0.01564026 C5.22484366 0.03268669 7.36288272 0.066379 9.50048828 0.1159668 C12.77040103 0.1915166 16.03790352 0.21842736 19.30859375 0.23632812 C21.39326145 0.25891359 23.47790192 0.28420982 25.5625 0.3125 C27.02354156 0.32995522 27.02354156 0.32995522 28.51409912 0.34776306 C33.98229754 0.48239284 38.0972349 0.9424917 42.828125 3.87890625 C44.40137745 6.36298907 44.47326463 8.72874834 44.609375 11.62109375 C43.63306174 15.12811374 41.86095939 16.5286299 39.015625 18.75390625 C35.8853496 19.36022579 32.85606171 19.16798126 29.68359375 19.00390625 C27.81319039 18.97159417 25.94274347 18.94172871 24.07226562 18.9140625 C21.15237264 18.84439625 18.23722154 18.75548247 15.31958008 18.62060547 C4.08786229 18.14641791 -4.10852818 18.37941309 -12.91015625 25.953125 C-14.72974074 27.62649354 -16.49967185 29.33311847 -18.24664307 31.08203125 C-21.09248078 33.8200168 -24.22076341 36.1771985 -27.359375 38.56640625 C-28.49841505 39.45311939 -29.63658177 40.34095682 -30.7734375 41.23046875 C-31.31129883 41.65102539 -31.84916016 42.07158203 -32.40332031 42.50488281 C-35.67112856 45.08643115 -38.88328882 47.7382738 -42.09375 50.390625 C-43.984375 51.75390625 -43.984375 51.75390625 -45.984375 51.75390625 C-47.04510865 49.17698268 -48.08300462 46.59448301 -49.109375 44.00390625 C-49.41230469 43.27429688 -49.71523438 42.5446875 -50.02734375 41.79296875 C-52.12020731 36.43913174 -52.12020731 36.43913174 -51.546875 33.546875 C-49.26506335 30.92849613 -46.6261739 28.88686696 -43.859375 26.81640625 C-42.59137753 25.84514582 -41.32449514 24.8724283 -40.05859375 23.8984375 C-39.3939209 23.38877441 -38.72924805 22.87911133 -38.04443359 22.35400391 C-33.88627301 19.12425936 -29.82798973 15.77027234 -25.75537109 12.43383789 C-24.53096323 11.4335928 -23.30061608 10.44055887 -22.06349182 9.45608521 C-20.68229895 8.3252986 -19.3338071 7.15330303 -18.02223206 5.94245911 C-12.08188142 0.72975804 -7.77831798 -0.24041145 0 0 Z " fill="#38454E" transform="translate(433.984375,156.24609375)"/>
<path d="M0 0 C2.15028449 -0.03797376 4.30029548 -0.09916418 6.44921875 -0.18457031 C18.37672409 -0.65417161 27.78832759 -0.94427039 36.9650116 7.40283203 C38.43598001 8.83107032 39.87478289 10.29222205 41.3112793 11.75512695 C42.79773629 12.99028789 44.30029248 14.20667344 45.8269043 15.3918457 C47.744176 16.95451462 49.6577461 18.52163529 51.57128906 20.08886719 C54.52371313 22.50253036 57.47823341 24.90310806 60.51049805 27.21606445 C61.41413086 27.90958008 62.31776367 28.6030957 63.2487793 29.31762695 C64.02092773 29.89641602 64.79307617 30.47520508 65.58862305 31.0715332 C67.59551465 33.03291706 67.90325337 34.01574918 68.3112793 36.75512695 C67.4250791 39.43367417 66.48755555 41.92662525 65.3737793 44.50512695 C64.93775391 45.55120117 64.93775391 45.55120117 64.49291992 46.6184082 C63.77576227 48.3348839 63.04484528 50.04559928 62.3112793 51.75512695 C57.74068489 49.22857956 53.87871358 46.07142562 49.8737793 42.75512695 C43.97326124 37.91143845 38.02932316 33.13522208 32.00488281 28.4465332 C29.42874622 26.43726402 27.03857887 24.47673877 24.74780273 22.13818359 C20.63166605 18.72108668 16.3818046 19.09652062 11.2409668 19.1887207 C10.2823172 19.18308609 9.3236676 19.17745148 8.33596802 19.17164612 C5.28556954 19.1552321 2.23662689 19.17071838 -0.8137207 19.19262695 C-3.87107024 19.20921946 -6.92746871 19.21833074 -9.98483276 19.20289612 C-11.88353775 19.19361255 -13.78244391 19.20279253 -15.68093872 19.23252869 C-22.0532033 19.20603937 -22.0532033 19.20603937 -25.24291992 16.94287109 C-27.29719796 13.83439668 -27.62369141 11.46179678 -27.6887207 7.75512695 C-26.47612753 4.72364403 -25.5753074 3.24911215 -22.71386719 1.65478516 C-15.48665772 -0.49453829 -7.48420328 0.09799191 0 0 Z " fill="#38454E" transform="translate(69.688720703125,156.244873046875)"/>
</svg>
